<?xml version="1.0" standalone="no"?>
<!DOCTYPE svg PUBLIC "-//W3C//DTD SVG 20010904//EN"
 "http://www.w3.org/TR/2001/REC-SVG-20010904/DTD/svg10.dtd">
<svg version="1.0" xmlns="http://www.w3.org/2000/svg"
 width="1013.000000pt" height="1280.000000pt" viewBox="0 0 1013.000000 1280.000000"
 preserveAspectRatio="xMidYMid meet">
<metadata>
Created by potrace 1.15, written by Peter Selinger 2001-2017
</metadata>
<g transform="translate(0.000000,1280.000000) scale(0.100000,-0.100000)"
fill="#000000" stroke="none">
<path d="M9137 12666 c-526 -73 -961 -136 -966 -142 -4 -5 -1008 -1737 -2231
-3849 -1223 -2112 -2408 -4159 -2633 -4548 -226 -389 -414 -704 -418 -700 -4
4 -181 566 -394 1248 -213 682 -389 1242 -391 1244 -2 2 -9 -1 -16 -6 -7 -6
-479 -268 -1048 -583 -569 -315 -1036 -574 -1037 -574 -1 -1 82 -168 184 -371
369 -734 583 -1205 1000 -2210 436 -1050 497 -1192 618 -1439 149 -305 268
-488 391 -605 99 -95 166 -126 270 -126 73 0 88 4 155 37 173 86 359 297 587
668 157 255 227 387 705 1335 751 1490 1180 2316 1780 3430 1493 2774 3013
5285 4384 7248 42 60 50 77 36 76 -10 -1 -449 -61 -976 -133z"/>
</g>
</svg>
